<svg width="174" height="28" viewBox="0 0 174 28" fill="none" xmlns="http://www.w3.org/2000/svg">
<g clip-path="url(#clip0_169_552)">
<path d="M113.631 14.4543V14.6403C113.631 15.566 113.755 16.4501 114.003 17.2943C114.25 18.1385 114.616 18.8784 115.102 19.5158C115.585 20.1532 116.194 20.6578 116.927 21.0278C117.659 21.3977 118.511 21.5836 119.48 21.5836C121.068 21.5836 122.328 21.1681 123.255 20.3334C124.183 19.5006 124.824 18.3434 125.175 16.8617H126.348C125.997 18.7133 125.242 20.1323 124.079 21.1207C122.916 22.1091 121.377 22.6023 119.465 22.6023C118.292 22.6023 117.268 22.3918 116.393 21.9706C115.519 21.5476 114.789 20.9727 114.202 20.2405C113.616 19.5101 113.178 18.6469 112.89 17.649C112.601 16.6512 112.457 15.5755 112.457 14.424C112.457 13.2725 112.607 12.248 112.905 11.2293C113.203 10.2106 113.65 9.31513 114.248 8.54492C114.844 7.7728 115.591 7.15625 116.486 6.69336C117.382 6.23047 118.437 5.99902 119.651 5.99902C120.762 5.99902 121.743 6.20581 122.599 6.61558C123.453 7.02725 124.168 7.58878 124.744 8.29829C125.321 9.00781 125.758 9.83114 126.055 10.7683C126.353 11.7036 126.503 12.7071 126.503 13.7771C126.503 13.8795 126.497 13.999 126.488 14.1318C126.477 14.2665 126.473 14.3747 126.473 14.4562H113.633L113.631 14.4543ZM125.298 13.4375C125.257 12.5724 125.113 11.7548 124.866 10.9827C124.617 10.2106 124.251 9.5333 123.767 8.9452C123.282 8.359 122.696 7.89042 122.003 7.54136C121.313 7.19039 120.523 7.01586 119.636 7.01586C118.687 7.01586 117.85 7.19609 117.13 7.55653C116.407 7.91508 115.798 8.38935 115.305 8.97555C114.809 9.56365 114.428 10.2466 114.161 11.0282C113.893 11.8117 113.726 12.6142 113.665 13.4356H125.3L125.298 13.4375Z" fill="#CCCCCC"/>
<path d="M128.798 16.8866C128.829 17.6284 128.986 18.2828 129.267 18.8539C129.548 19.423 129.916 19.9105 130.375 20.3184C130.832 20.7263 131.369 21.0355 131.984 21.2499C132.596 21.4643 133.264 21.5762 133.985 21.5838C134.499 21.5914 135.049 21.5515 135.637 21.4662C136.226 21.3808 136.772 21.2195 137.28 20.9786C137.787 20.7396 138.208 20.4 138.544 19.9618C138.88 19.5235 139.05 18.9658 139.06 18.2866C139.071 17.4026 138.813 16.7291 138.284 16.27C137.755 15.8109 137.085 15.4524 136.277 15.1944C135.467 14.9364 134.596 14.7258 133.661 14.5589C132.725 14.3919 131.855 14.1491 131.047 13.8304C130.238 13.5117 129.571 13.0659 129.043 12.4929C128.516 11.92 128.258 11.0891 128.273 9.99826C128.282 9.21666 128.466 8.56596 128.823 8.04616C129.18 7.52636 129.633 7.11469 130.181 6.81305C130.73 6.51142 131.344 6.29894 132.025 6.17374C132.706 6.04853 133.386 5.99162 134.065 5.9992C134.888 6.01059 135.656 6.11303 136.375 6.30653C137.093 6.50193 137.713 6.80736 138.231 7.22472C138.749 7.64398 139.155 8.17327 139.445 8.81448C139.735 9.4557 139.874 10.2297 139.862 11.1346L138.69 11.1194C138.699 10.4004 138.589 9.7801 138.36 9.2622C138.13 8.74619 137.806 8.32503 137.389 8.00063C136.971 7.67623 136.474 7.4334 135.901 7.27025C135.326 7.109 134.71 7.02363 134.052 7.01415C133.517 7.00656 132.976 7.05209 132.43 7.14884C131.883 7.24369 131.394 7.41253 130.957 7.65346C130.521 7.89439 130.162 8.20931 129.88 8.59632C129.597 8.98332 129.451 9.4557 129.445 10.0096C129.436 10.6471 129.584 11.1631 129.887 11.5596C130.191 11.9542 130.593 12.2748 131.094 12.5176C131.595 12.7604 132.158 12.9577 132.784 13.1114C133.41 13.2632 134.04 13.4168 134.678 13.5686C135.457 13.7222 136.19 13.9025 136.878 14.1055C137.565 14.3103 138.157 14.5854 138.658 14.9307C139.157 15.276 139.547 15.7199 139.828 16.2587C140.109 16.7974 140.246 17.4785 140.234 18.2999C140.223 19.165 140.018 19.8707 139.619 20.4228C139.221 20.9729 138.722 21.4149 138.121 21.745C137.519 22.077 136.854 22.3047 136.121 22.4299C135.389 22.5532 134.674 22.612 133.974 22.6025C133.069 22.5911 132.232 22.4602 131.464 22.2155C130.696 21.9689 130.026 21.6009 129.457 21.1095C128.888 20.6201 128.442 20.0206 128.123 19.3168C127.803 18.6129 127.637 17.7972 127.63 16.8714L128.802 16.8866H128.798Z" fill="#CCCCCC"/>
<path d="M143.406 0.196045H142.233V3.37556H143.406V0.196045Z" fill="#CCCCCC"/>
<path d="M143.406 6.42603H142.233V22.2326H143.406V6.42603Z" fill="#CCCCCC"/>
<path d="M159.025 6.36914V21.3998C159.025 22.2838 158.923 23.1432 158.716 23.9779C158.511 24.8107 158.156 25.5468 157.653 26.1842C157.151 26.8216 156.458 27.332 155.576 27.7114C154.694 28.0927 153.575 28.2824 152.22 28.2824C151.378 28.2824 150.589 28.1951 149.849 28.0187C149.109 27.8442 148.462 27.5672 147.908 27.1859C147.354 26.8046 146.906 26.3018 146.569 25.6739C146.229 25.046 146.039 24.2701 146 23.3443H147.172C147.235 24.0443 147.409 24.64 147.698 25.1332C147.986 25.6265 148.362 26.0344 148.824 26.3531C149.287 26.6718 149.807 26.9032 150.382 27.0474C150.957 27.1916 151.575 27.2637 152.233 27.2637C153.324 27.2637 154.235 27.0986 154.965 26.7704C155.696 26.4403 156.276 26.0135 156.709 25.4899C157.141 24.9663 157.445 24.3687 157.619 23.699C157.794 23.0313 157.881 22.3559 157.881 21.6786V18.0362H157.792C157.238 19.2086 156.483 20.1041 155.529 20.7206C154.575 21.3372 153.419 21.6464 152.065 21.6464C150.894 21.6464 149.883 21.4453 149.031 21.045C148.179 20.6447 147.47 20.0889 146.906 19.3775C146.341 18.668 145.92 17.8389 145.643 16.8923C145.364 15.9456 145.228 14.9174 145.228 13.8057C145.228 12.7566 145.377 11.7588 145.675 10.8121C145.973 9.86548 146.409 9.03645 146.986 8.32694C147.563 7.61743 148.278 7.0521 149.132 6.62905C149.985 6.20789 150.968 5.99731 152.08 5.99731C153.336 5.99731 154.493 6.31603 155.551 6.95345C156.612 7.59087 157.369 8.49768 157.82 9.67008H157.883V6.36914H159.025ZM152.08 7.01605C151.112 7.01605 150.276 7.21145 149.564 7.60225C148.855 7.99305 148.269 8.50716 147.806 9.14458C147.343 9.7839 146.994 10.5086 146.757 11.3205C146.519 12.1325 146.402 12.9615 146.402 13.8057C146.402 14.7315 146.519 15.6118 146.757 16.4446C146.992 17.2774 147.352 18.0021 147.836 18.6205C148.32 19.2371 148.917 19.7265 149.627 20.087C150.338 20.4474 151.156 20.6277 152.08 20.6277C153.004 20.6277 153.892 20.4417 154.611 20.0718C155.331 19.7019 155.933 19.1973 156.415 18.5598C156.898 17.9224 157.259 17.1977 157.496 16.3839C157.731 15.5719 157.851 14.7125 157.851 13.8057C157.851 12.8989 157.731 12.068 157.496 11.2447C157.259 10.4213 156.898 9.69664 156.415 9.0687C155.931 8.44266 155.33 7.94183 154.611 7.5719C153.89 7.20197 153.047 7.01605 152.08 7.01605Z" fill="#CCCCCC"/>
<path d="M-0.046875 0.131481H9.36648C9.98493 0.131481 10.6717 0.20357 11.4248 0.347748C12.178 0.491927 12.8799 0.785976 13.5306 1.22989C14.1813 1.67381 14.722 2.30365 15.1564 3.1175C15.5908 3.93324 15.8071 5.00131 15.8071 6.32168C15.8071 8.2624 15.2076 9.7592 14.0105 10.8102C12.8135 11.8631 11.1004 12.3886 8.87134 12.3886H1.31713V22.2345H-0.044979V0.127686L-0.046875 0.131481ZM1.31523 11.2162H9.08571C10.076 11.2162 10.9164 11.0663 11.6088 10.7666C12.2994 10.4668 12.8514 10.0798 13.265 9.60554C13.6786 9.13127 13.9764 8.60577 14.1623 8.02716C14.3482 7.45045 14.4412 6.87183 14.4412 6.29322C14.4412 5.87966 14.3786 5.39021 14.2553 4.82298C14.132 4.25575 13.8834 3.70749 13.5116 3.182C13.1398 2.65461 12.6181 2.21069 11.9484 1.85024C11.2768 1.4898 10.3852 1.30767 9.26972 1.30767H1.31334V11.2162H1.31523Z" fill="black"/>
<path d="M105.576 2.2866C106.375 2.68689 107.098 3.29965 107.714 3.99019C108.132 4.45687 109.109 5.94608 109.545 7.4315C109.938 7.46945 109.968 7.44289 110.41 7.44289C110.613 7.44289 110.716 7.41822 110.909 7.41063C110.283 5.48319 109.249 3.69424 108.437 2.90126C107.492 1.97927 106.709 1.33806 105.165 0.765137C104.941 1.09144 104.838 1.49172 104.789 1.94323C105.108 2.07033 105.267 2.13104 105.578 2.2847L105.576 2.2866Z" fill="#CCCCCC"/>
<path d="M166.356 7.27773C167.003 7.06146 167.483 6.94195 168.187 6.98368C168.663 7.01024 169.979 7.09561 171.097 7.75959C171.328 7.56799 171.33 7.53763 171.569 7.30049C171.679 7.19046 171.431 6.90211 171.531 6.79397C170.156 6.09395 168.925 5.90614 168.058 5.91562C167.052 5.9289 165.986 6.17932 164.982 6.82622C165.039 7.12217 165.529 7.24358 165.745 7.51297C165.984 7.41053 166.105 7.3631 166.356 7.27963V7.27773Z" fill="#CCCCCC"/>
<path d="M16.1381 18.1215C16.1381 17.9773 16.1475 17.8426 16.1589 17.7098C15.789 17.5106 15.4134 17.3418 15.0302 17.209C14.9846 17.4917 14.96 17.7952 14.96 18.1215C14.96 19.6486 15.4247 20.7793 16.3524 21.5116C17.1701 22.1566 18.2856 22.517 19.6951 22.5948C19.6856 22.5607 19.678 22.5246 19.6685 22.4905C19.5737 22.1509 19.4655 21.836 19.3517 21.5306C18.4999 21.4205 17.798 21.1587 17.2497 20.7395C16.508 20.1722 16.1362 19.2996 16.1362 18.1234L16.1381 18.1215Z" fill="black"/>
<path d="M28.492 21.2175C28.2226 21.2175 28.0177 21.1606 27.8717 21.0468C27.7275 20.933 27.625 20.7831 27.5624 20.5972C27.4998 20.4113 27.4638 20.2045 27.4543 19.9787C27.4429 19.7511 27.4391 19.5253 27.4391 19.2977V10.0399C27.4391 8.82195 27.0009 7.83547 26.1225 7.08232C25.2442 6.32918 23.846 5.95166 21.9262 5.95166C20.0063 5.95166 18.5247 6.38989 17.4832 7.26824C16.4398 8.14469 15.8783 9.46127 15.7967 11.2161H16.9729C17.0545 9.79136 17.5344 8.729 18.4128 8.02707C19.2892 7.32515 20.4408 6.97419 21.8655 6.97419C22.6717 6.97419 23.3509 7.05577 23.9086 7.22271C24.4664 7.38776 24.9198 7.61541 25.2708 7.90376C25.6217 8.19212 25.8797 8.52221 26.0448 8.89404C26.2098 9.26587 26.2933 9.66806 26.2933 10.1025C26.2933 10.6602 26.2629 11.1231 26.2003 11.4949C26.1377 11.8668 25.9841 12.1722 25.7355 12.4075C25.4889 12.6446 25.1209 12.8305 24.6371 12.9652C24.1515 13.0999 23.4856 13.1966 22.6395 13.2592L20.8126 13.4148C20.1733 13.4774 19.5074 13.5798 18.8169 13.724C18.1244 13.8682 17.4946 14.111 16.9274 14.4525C16.3601 14.7921 15.8897 15.2569 15.5178 15.845C15.4761 15.9114 15.4363 15.9816 15.3983 16.0537C15.2219 16.3894 15.1005 16.7745 15.0303 17.209C15.4135 17.3418 15.7891 17.5106 16.159 17.7098C16.197 17.2412 16.3032 16.839 16.4759 16.4995C16.5081 16.435 16.5347 16.3686 16.5726 16.3098C16.861 15.845 17.2385 15.4788 17.7033 15.2094C18.1681 14.942 18.6898 14.7504 19.2665 14.6365C19.8432 14.5227 20.4218 14.4354 21.0004 14.3728L22.9829 14.1869C23.7057 14.1243 24.3601 14.0314 24.9482 13.908C25.5363 13.7847 25.9746 13.5476 26.2648 13.1966V16.1694C26.2648 16.3762 26.2079 16.7726 26.0941 17.3607C25.9803 17.9488 25.7166 18.5578 25.3049 19.1876C24.8913 19.8175 24.2938 20.3752 23.5084 20.859C22.8159 21.2877 21.9034 21.5249 20.7766 21.5761C20.6267 21.5837 20.4749 21.5856 20.3194 21.5856C19.9798 21.5856 19.6592 21.5647 19.3575 21.5268C19.4714 21.8322 19.5795 22.1471 19.6743 22.4867C19.6838 22.5208 19.6914 22.5569 19.7009 22.591C19.8925 22.6024 20.0879 22.6081 20.289 22.6081C20.547 22.6081 20.7955 22.5929 21.0384 22.572C21.5164 22.5303 21.9698 22.4525 22.3948 22.3292C23.0341 22.1433 23.607 21.8853 24.1135 21.5552C24.6182 21.2251 25.0469 20.8476 25.3979 20.4245C25.7488 20.0015 26.0163 19.5519 26.2022 19.0776H26.2648V19.9142C26.2648 20.2443 26.2914 20.5479 26.3426 20.8267C26.3938 21.1056 26.4925 21.3484 26.6367 21.5533C26.7808 21.7601 26.9933 21.9251 27.2722 22.0485C27.5511 22.1718 27.9267 22.2344 28.4028 22.2344C28.7329 22.2344 29.0535 22.1926 29.3628 22.1111V21.1208C28.9909 21.1834 28.7026 21.2137 28.4958 21.2137L28.492 21.2175Z" fill="black"/>
<path d="M35.8878 22.2382H34.4328L28.0244 6.32349H29.3865L35.1461 20.8741H35.2087L40.5964 6.32349H41.8959L35.8878 22.2382Z" fill="black"/>
<path d="M43.904 0.140909L43.6156 22.2458L42.4395 22.2306L42.7278 0.125732L43.904 0.140909Z" fill="black"/>
<path d="M45.042 14.2818C45.042 13.1473 45.2013 12.0793 45.522 11.0776C45.8426 10.0759 46.3111 9.19378 46.9315 8.42926C47.5499 7.66473 48.3145 7.06146 49.2232 6.61754C50.1319 6.17362 51.1734 5.95166 52.3496 5.95166C53.5258 5.95166 54.5692 6.17362 55.4779 6.61754C56.3866 7.06146 57.1492 7.66473 57.7696 8.42926C58.388 9.19189 58.8585 10.0759 59.1791 11.0776C59.4997 12.0793 59.6591 13.1473 59.6591 14.2818C59.6591 15.4162 59.4997 16.49 59.1791 17.5011C58.8585 18.5123 58.3899 19.3944 57.7696 20.1495C57.1511 20.9026 56.3866 21.5002 55.4779 21.9441C54.5692 22.388 53.5277 22.61 52.3496 22.61C51.1715 22.61 50.13 22.388 49.2232 21.9441C48.3145 21.5002 47.5499 20.9026 46.9315 20.1495C46.313 19.3963 45.8426 18.5142 45.522 17.5011C45.2013 16.49 45.042 15.4162 45.042 14.2818ZM46.2182 14.2818C46.2182 15.2303 46.3529 16.1447 46.6204 17.0212C46.8898 17.8995 47.2806 18.6773 47.7966 19.3584C48.3126 20.0394 48.9519 20.582 49.7164 20.9842C50.479 21.3864 51.3574 21.5875 52.3477 21.5875C53.338 21.5875 54.2163 21.3864 54.9789 20.9842C55.7416 20.582 56.3828 20.0394 56.8988 19.3584C57.4148 18.6773 57.8075 17.8995 58.075 17.0212C58.3444 16.1447 58.4772 15.2303 58.4772 14.2818C58.4772 13.3332 58.3444 12.4188 58.075 11.5424C57.8075 10.6659 57.4148 9.88622 56.8988 9.20517C56.3828 8.52411 55.7416 7.98344 54.9789 7.57936C54.2144 7.17718 53.338 6.97609 52.3477 6.97609C51.3574 6.97609 50.479 7.17718 49.7164 7.57936C48.9519 7.98154 48.3126 8.52411 47.7966 9.20517C47.2806 9.88622 46.8879 10.6659 46.6204 11.5424C46.3529 12.4188 46.2182 13.3332 46.2182 14.2818Z" fill="black"/>
<path d="M66.7413 22.2382H65.2862L58.876 6.32349H60.2381L65.9976 20.8741H66.0602L71.448 6.32349H72.7475L66.7413 22.2382Z" fill="black"/>
<path d="M164.715 6.98564C164.21 7.31573 163.768 7.71033 163.387 8.17321C163.005 8.6361 162.713 9.16729 162.507 9.76298H162.446V6.36719H161.273V22.2306H162.446V13.6501C162.446 12.6826 162.573 11.7929 162.831 10.9809C163.089 10.169 163.463 9.46893 163.958 8.88273C164.451 8.29653 165.047 7.83743 165.747 7.50923C165.942 7.41817 166.147 7.34229 166.358 7.27589C165.851 7.17155 165.392 7.02168 164.984 6.82249C164.893 6.87561 164.802 6.92683 164.715 6.98374V6.98564Z" fill="#CCCCCC"/>
<path d="M169.943 7.26451C170.215 7.35367 170.457 7.4656 170.672 7.60409C171.279 7.99489 171.732 8.46347 172.03 9.00793C172.328 9.55239 172.508 10.1253 172.571 10.721C172.632 11.3186 172.662 11.8118 172.662 12.2026V22.2325H173.834V12.417C173.834 12.0888 173.825 11.7018 173.804 11.2598C173.783 10.8178 173.722 10.3587 173.62 9.88628C173.516 9.41201 173.347 8.94533 173.11 8.48244C172.872 8.01955 172.55 7.60219 172.138 7.23225C171.937 7.05013 171.704 6.88509 171.446 6.73901C171.102 6.90596 170.736 7.05014 170.344 7.16396C170.215 7.2019 170.078 7.23226 169.943 7.26261V7.26451Z" fill="#CCCCCC"/>
<path d="M85.4557 21.2175C85.1863 21.2175 84.9795 21.1606 84.8354 21.0468C84.6912 20.933 84.5868 20.7831 84.5242 20.5972C84.4616 20.4113 84.4275 20.2045 84.4161 19.9787C84.4066 19.7511 84.4009 19.5253 84.4009 19.2977V10.0399C84.4009 8.82195 83.9627 7.83547 83.0843 7.08232C82.2079 6.32918 80.8078 5.95166 78.8899 5.95166C76.9719 5.95166 75.4884 6.38989 74.4469 7.26824C73.4035 8.14469 72.842 9.46127 72.7604 11.2161H73.9366C74.0182 9.79136 74.4981 8.729 75.3765 8.02707C76.2529 7.32515 77.4045 6.97419 78.8292 6.97419C79.6335 6.97419 80.3146 7.05577 80.8723 7.22271C81.4301 7.38776 81.8835 7.61541 82.2344 7.90376C82.5854 8.19212 82.8434 8.52221 83.0085 8.89404C83.1735 9.26587 83.2551 9.66806 83.2551 10.1025C83.2551 10.6602 83.2247 11.1231 83.1621 11.4949C83.0995 11.8668 82.9459 12.1722 82.6973 12.4075C82.4488 12.6446 82.0827 12.8305 81.5989 12.9652C81.1133 13.0999 80.4474 13.1966 79.6013 13.2592L77.7744 13.4148C77.1351 13.4774 76.4692 13.5798 75.7768 13.724C75.0843 13.8682 74.4564 14.111 73.8873 14.4525C73.32 14.7921 72.8496 15.2569 72.4796 15.845C72.1078 16.4331 71.9219 17.1919 71.9219 18.1215C71.9219 19.6486 72.3867 20.7793 73.3143 21.5116C73.5496 21.6975 73.8095 21.8587 74.094 21.9972C74.4943 22.1926 74.9439 22.3406 75.4429 22.4412C75.9873 22.5531 76.5868 22.61 77.247 22.61C77.8579 22.61 78.427 22.5474 78.9601 22.4279C79.0929 22.3975 79.2257 22.3672 79.3528 22.3311C79.7379 22.2192 80.0964 22.0769 80.4341 21.9138C80.6561 21.8056 80.8704 21.6899 81.0715 21.5571C81.5762 21.227 82.0049 20.8495 82.3559 20.4264C82.7068 20.0034 82.9743 19.5538 83.1621 19.0795H83.2247V19.9161C83.2247 20.2462 83.2494 20.5498 83.3025 20.8286C83.3537 21.1075 83.4524 21.3503 83.5965 21.5552C83.7407 21.762 83.9532 21.927 84.2302 22.0503C84.5091 22.1737 84.8847 22.2363 85.3609 22.2363C85.6909 22.2363 86.0116 22.1945 86.3208 22.113V21.1227C85.9489 21.1853 85.6606 21.2156 85.4538 21.2156L85.4557 21.2175ZM83.2266 16.1713C83.2266 16.3781 83.1697 16.7745 83.0559 17.3626C82.9421 17.9507 82.6784 18.5597 82.2667 19.1895C81.8531 19.8194 81.2555 20.3771 80.4702 20.8609C80.0888 21.0961 79.6411 21.2744 79.127 21.394C78.5844 21.523 77.9698 21.5875 77.2811 21.5875C76.6589 21.5875 76.1012 21.5211 75.6079 21.3921C75.0691 21.2498 74.6044 21.0335 74.2155 20.7376C73.4718 20.1703 73.1019 19.2977 73.1019 18.1215C73.1019 17.3778 73.246 16.7745 73.5344 16.3098C73.8228 15.845 74.2003 15.4788 74.6651 15.2094C75.1299 14.942 75.6516 14.7504 76.2283 14.6365C76.8069 14.5227 77.3855 14.4354 77.9622 14.3728L79.9428 14.1869C80.6655 14.1243 81.3201 14.0314 81.91 13.908C82.4981 13.7847 82.9364 13.5476 83.2266 13.1966V16.1694V16.1713Z" fill="black"/>
<path d="M110.908 7.41254C110.66 7.43341 110.407 7.44859 110.144 7.44859C109.937 7.44859 109.738 7.4429 109.544 7.43151C109.823 8.4806 109.965 9.72889 109.965 11.1821C109.965 13.0962 109.704 14.686 109.178 15.9513C108.653 17.2167 107.97 18.2259 107.125 18.9753C106.281 19.7265 105.34 20.2615 104.301 20.5802C103.261 20.8989 102.227 21.0583 101.199 21.0583H95.2724V14.6974H93.9141V22.2307H101.074C102.844 22.2307 104.371 21.948 105.657 21.3827C106.943 20.8174 108.008 20.0396 108.852 19.0512C109.696 18.0628 110.318 16.8961 110.718 15.5492C111.121 14.2022 111.32 12.7453 111.32 11.1821C111.32 9.89014 111.178 8.63427 110.904 7.41064L110.908 7.41254Z" fill="#CCCCCC"/>
<path d="M95.2724 1.36845H100.92C101.455 1.36845 102.056 1.40449 102.726 1.47658C103.394 1.54867 104.064 1.69854 104.733 1.92429C104.752 1.92998 104.769 1.93757 104.788 1.94516C104.86 1.50314 104.984 1.11044 105.164 0.767069C104.026 0.387651 102.686 0.196045 101.138 0.196045H93.916V16.0519H95.2743V1.36845H95.2724Z" fill="#CCCCCC"/>
</g>
<defs>
<clipPath id="clip0_169_552">
<rect width="174" height="28" fill="white"/>
</clipPath>
</defs>
</svg>
