<svg width="176" height="33" viewBox="0 0 176 33" fill="none" xmlns="http://www.w3.org/2000/svg">
<path d="M115.693 19.075V19.2607C115.693 20.185 115.817 21.0677 116.065 21.9106C116.312 22.7535 116.678 23.4922 117.164 24.1286C117.648 24.7651 118.257 25.2689 118.99 25.6383C119.723 26.0076 120.575 26.1933 121.545 26.1933C123.133 26.1933 124.394 25.7784 125.322 24.945C126.25 24.1135 126.891 22.9581 127.242 21.4787H128.415C128.064 23.3274 127.309 24.7442 126.145 25.7311C124.982 26.7179 123.443 27.2104 121.53 27.2104C120.357 27.2104 119.332 27.0002 118.457 26.5797C117.582 26.1573 116.851 25.5833 116.265 24.8522C115.678 24.123 115.24 23.2611 114.951 22.2648C114.663 21.2685 114.519 20.1945 114.519 19.0447C114.519 17.895 114.668 16.8721 114.966 15.855C115.264 14.8378 115.712 13.9438 116.31 13.1748C116.906 12.4038 117.654 11.7882 118.55 11.3261C119.446 10.8639 120.501 10.6328 121.716 10.6328C122.828 10.6328 123.809 10.8393 124.665 11.2484C125.519 11.6594 126.234 12.2201 126.811 12.9285C127.388 13.6369 127.825 14.459 128.123 15.3947C128.421 16.3285 128.571 17.3305 128.571 18.3988C128.571 18.5011 128.565 18.6204 128.556 18.753C128.544 18.8875 128.54 18.9955 128.54 19.0769H115.695L115.693 19.075ZM127.366 18.0598C127.324 17.196 127.18 16.3797 126.933 15.6087C126.684 14.8378 126.318 14.1616 125.834 13.5744C125.348 12.9891 124.762 12.5213 124.069 12.1728C123.378 11.8223 122.589 11.6481 121.7 11.6481C120.751 11.6481 119.914 11.828 119.193 12.1879C118.47 12.5459 117.861 13.0194 117.367 13.6047C116.872 14.1919 116.491 14.8738 116.223 15.6542C115.955 16.4365 115.788 17.2377 115.728 18.0579H127.368L127.366 18.0598Z" fill="#CCCCCC"/>
<path d="M130.867 21.5033C130.898 22.2439 131.055 22.8974 131.336 23.4675C131.617 24.0358 131.985 24.5226 132.445 24.9298C132.902 25.337 133.439 25.6458 134.054 25.8598C134.667 26.0739 135.335 26.1856 136.056 26.1932C136.571 26.2008 137.121 26.161 137.709 26.0758C138.298 25.9905 138.844 25.8295 139.353 25.589C139.86 25.3503 140.281 25.0112 140.617 24.5737C140.953 24.1361 141.124 23.5793 141.133 22.9012C141.145 22.0185 140.887 21.3461 140.357 20.8877C139.827 20.4293 139.158 20.0713 138.349 19.8137C137.539 19.5561 136.667 19.3458 135.732 19.1792C134.796 19.0125 133.925 18.77 133.116 18.4518C132.308 18.1336 131.64 17.6885 131.112 17.1164C130.585 16.5444 130.326 15.7148 130.342 14.6256C130.351 13.8452 130.535 13.1955 130.892 12.6765C131.249 12.1575 131.702 11.7465 132.251 11.4453C132.799 11.1442 133.414 10.932 134.096 10.807C134.777 10.682 135.457 10.6252 136.136 10.6327C136.96 10.6441 137.728 10.7464 138.448 10.9396C139.165 11.1347 139.786 11.4397 140.304 11.8564C140.822 12.275 141.228 12.8034 141.519 13.4437C141.809 14.0839 141.947 14.8567 141.936 15.7602L140.763 15.7451C140.773 15.0272 140.663 14.4078 140.433 13.8907C140.203 13.3755 139.879 12.955 139.461 12.6311C139.044 12.3072 138.546 12.0647 137.973 11.9018C137.398 11.7408 136.781 11.6556 136.123 11.6461C135.588 11.6385 135.047 11.684 134.5 11.7806C133.953 11.8753 133.464 12.0439 133.027 12.2844C132.591 12.525 132.232 12.8394 131.949 13.2258C131.666 13.6122 131.52 14.0839 131.515 14.637C131.505 15.2734 131.653 15.7886 131.957 16.1845C132.26 16.5785 132.663 16.8986 133.164 17.141C133.665 17.3835 134.229 17.5805 134.855 17.7339C135.481 17.8855 136.111 18.0389 136.749 18.1904C137.529 18.3438 138.262 18.5238 138.951 18.7265C139.638 18.931 140.23 19.2057 140.731 19.5504C141.23 19.8951 141.621 20.3384 141.902 20.8763C142.183 21.4143 142.319 22.0943 142.308 22.9144C142.297 23.7782 142.092 24.4828 141.693 25.034C141.295 25.5833 140.795 26.0246 140.194 26.3542C139.592 26.6857 138.926 26.913 138.193 27.038C137.461 27.1611 136.745 27.2198 136.045 27.2104C135.14 27.199 134.303 27.0683 133.534 26.8239C132.765 26.5777 132.095 26.2102 131.526 25.7197C130.957 25.231 130.511 24.6324 130.192 23.9297C129.871 23.227 129.706 22.4125 129.698 21.4881L130.871 21.5033H130.867Z" fill="#CCCCCC"/>
<path d="M145.482 4.83862H144.309V8.01322H145.482V4.83862Z" fill="#CCCCCC"/>
<path d="M145.482 11.0591H144.309V26.8411H145.482V11.0591Z" fill="#CCCCCC"/>
<path d="M161.107 11.0021V26.0095C161.107 26.8921 161.005 27.7502 160.798 28.5836C160.593 29.4151 160.238 30.1501 159.735 30.7865C159.232 31.4229 158.539 31.9325 157.657 32.3113C156.774 32.692 155.655 32.8814 154.299 32.8814C153.457 32.8814 152.667 32.7943 151.927 32.6182C151.187 32.4439 150.54 32.1673 149.985 31.7866C149.431 31.4059 148.983 30.904 148.646 30.277C148.306 29.65 148.116 28.8753 148.076 27.951H149.249C149.312 28.6499 149.486 29.2447 149.775 29.7372C150.063 30.2296 150.439 30.6369 150.902 30.9551C151.365 31.2733 151.885 31.5044 152.46 31.6484C153.035 31.7923 153.654 31.8643 154.313 31.8643C155.404 31.8643 156.315 31.6995 157.046 31.3718C157.777 31.0422 158.357 30.616 158.79 30.0933C159.223 29.5705 159.526 28.9738 159.701 28.3052C159.876 27.6384 159.963 26.9641 159.963 26.2879V22.6511H159.874C159.32 23.8217 158.564 24.7158 157.609 25.3314C156.655 25.947 155.499 26.2557 154.144 26.2557C152.973 26.2557 151.961 26.0549 151.109 25.6553C150.257 25.2556 149.547 24.7006 148.983 23.9903C148.418 23.2819 147.996 22.4541 147.719 21.509C147.44 20.5638 147.304 19.5372 147.304 18.4272C147.304 17.3797 147.454 16.3834 147.752 15.4382C148.05 14.493 148.486 13.6653 149.063 12.9569C149.64 12.2485 150.356 11.684 151.21 11.2616C152.064 10.8411 153.047 10.6309 154.159 10.6309C155.415 10.6309 156.573 10.9491 157.632 11.5855C158.693 12.2219 159.45 13.1273 159.902 14.2979H159.965V11.0021H161.107ZM154.159 11.648C153.191 11.648 152.354 11.8431 151.642 12.2333C150.933 12.6235 150.346 13.1368 149.883 13.7733C149.42 14.4116 149.071 15.1351 148.833 15.9458C148.596 16.7565 148.479 17.5843 148.479 18.4272C148.479 19.3515 148.596 20.2304 148.833 21.0619C149.069 21.8935 149.429 22.617 149.913 23.2345C150.397 23.8501 150.995 24.3388 151.705 24.6987C152.417 25.0586 153.235 25.2385 154.159 25.2385C155.083 25.2385 155.972 25.0529 156.691 24.6836C157.412 24.3142 158.014 23.8104 158.496 23.1739C158.98 22.5375 159.34 21.8139 159.578 21.0013C159.813 20.1906 159.933 19.3326 159.933 18.4272C159.933 17.5218 159.813 16.6921 159.578 15.8701C159.34 15.048 158.98 14.3245 158.496 13.6975C158.012 13.0724 157.41 12.5724 156.691 12.203C155.97 11.8336 155.127 11.648 154.159 11.648Z" fill="#CCCCCC"/>
<path d="M1.96582 4.7743H11.3834C12.0021 4.7743 12.6891 4.84627 13.4426 4.99023C14.1961 5.13419 14.8983 5.42778 15.5493 5.87101C16.2003 6.31424 16.7412 6.9431 17.1758 7.75569C17.6105 8.57017 17.8268 9.63658 17.8268 10.9549C17.8268 12.8926 17.2271 14.3871 16.0295 15.4365C14.8319 16.4877 13.1181 17.0124 10.888 17.0124H3.33043V26.843H1.96772V4.77051L1.96582 4.7743ZM3.32853 15.8418H11.1025C12.0932 15.8418 12.934 15.6922 13.6267 15.3929C14.3176 15.0936 14.8699 14.7072 15.2836 14.2337C15.6974 13.7601 15.9953 13.2355 16.1813 12.6578C16.3673 12.0819 16.4603 11.5042 16.4603 10.9265C16.4603 10.5136 16.3977 10.0249 16.2743 9.45853C16.151 8.89218 15.9023 8.34477 15.5303 7.82009C15.1583 7.29352 14.6364 6.85029 13.9664 6.4904C13.2946 6.13051 12.4025 5.94867 11.2866 5.94867H3.32664V15.8418H3.32853Z" fill="white"/>
<path d="M107.635 6.92585C108.434 7.32551 109.157 7.93732 109.774 8.62679C110.192 9.09276 111.169 10.5797 111.606 12.0628C111.999 12.1007 112.029 12.0741 112.471 12.0741C112.674 12.0741 112.777 12.0495 112.97 12.0419C112.344 10.1175 111.31 8.33131 110.497 7.53955C109.552 6.61899 108.768 5.97877 107.223 5.40674C106.999 5.73253 106.897 6.1322 106.848 6.58301C107.167 6.70992 107.326 6.77053 107.637 6.92395L107.635 6.92585Z" fill="#CCCCCC"/>
<path d="M168.442 11.9094C169.09 11.6935 169.57 11.5741 170.274 11.6158C170.75 11.6423 172.068 11.7276 173.185 12.3905C173.417 12.1992 173.419 12.1689 173.658 11.9321C173.768 11.8223 173.519 11.5344 173.62 11.4264C172.244 10.7275 171.012 10.5399 170.145 10.5494C169.139 10.5627 168.072 10.8127 167.068 11.4586C167.125 11.7541 167.615 11.8753 167.831 12.1443C168.07 12.042 168.192 11.9946 168.442 11.9113V11.9094Z" fill="#CCCCCC"/>
<path d="M18.1571 22.7365C18.1571 22.5926 18.1666 22.4581 18.178 22.3255C17.8079 22.1266 17.4321 21.958 17.0487 21.8254C17.0032 22.1077 16.9785 22.4107 16.9785 22.7365C16.9785 24.2613 17.4435 25.3902 18.3716 26.1214C19.1896 26.7654 20.3056 27.1253 21.7158 27.2029C21.7063 27.1688 21.6987 27.1328 21.6892 27.0988C21.5943 26.7597 21.4861 26.4453 21.3722 26.1403C20.5201 26.0305 19.8178 25.7691 19.2693 25.3505C18.5272 24.7841 18.1552 23.9128 18.1552 22.7384L18.1571 22.7365Z" fill="white"/>
<path d="M30.5166 25.8277C30.247 25.8277 30.0421 25.7709 29.8959 25.6572C29.7517 25.5436 29.6492 25.3939 29.5866 25.2083C29.5239 25.0227 29.4879 24.8162 29.4784 24.5908C29.467 24.3635 29.4632 24.1381 29.4632 23.9108V14.6673C29.4632 13.4513 29.0248 12.4663 28.146 11.7144C27.2673 10.9624 25.8685 10.5854 23.9478 10.5854C22.0271 10.5854 20.5448 11.023 19.5029 11.9C18.459 12.7751 17.8972 14.0896 17.8156 15.8417H18.9923C19.0739 14.4192 19.5541 13.3585 20.4328 12.6576C21.3097 11.9568 22.4617 11.6064 23.8871 11.6064C24.6937 11.6064 25.3732 11.6878 25.9311 11.8545C26.4891 12.0193 26.9427 12.2466 27.2939 12.5345C27.645 12.8224 27.9031 13.152 28.0682 13.5233C28.2333 13.8945 28.3169 14.2961 28.3169 14.7298C28.3169 15.2867 28.2865 15.7489 28.2238 16.1202C28.1612 16.4914 28.0075 16.7964 27.7589 17.0312C27.5121 17.268 27.1439 17.4536 26.66 17.5881C26.1741 17.7226 25.5079 17.8192 24.6614 17.8817L22.8337 18.037C22.1941 18.0995 21.5279 18.2018 20.8371 18.3458C20.1444 18.4897 19.5142 18.7322 18.9468 19.0731C18.3793 19.4122 17.9086 19.8763 17.5366 20.4634C17.4948 20.5297 17.455 20.5998 17.417 20.6718C17.2405 21.0071 17.1191 21.3916 17.0488 21.8253C17.4322 21.9579 17.808 22.1265 18.1781 22.3254C18.2161 21.8575 18.3223 21.456 18.4951 21.1169C18.5273 21.0525 18.5539 20.9862 18.5918 20.9275C18.8803 20.4634 19.258 20.0979 19.723 19.8289C20.188 19.5618 20.7099 19.3705 21.2869 19.2569C21.8639 19.1432 22.4428 19.0561 23.0216 18.9936L25.005 18.808C25.7281 18.7454 26.3829 18.6526 26.9712 18.5295C27.5596 18.4064 27.998 18.1696 28.2884 17.8192V20.7873C28.2884 20.9938 28.2314 21.3897 28.1176 21.9769C28.0037 22.5641 27.7399 23.1721 27.328 23.8009C26.9143 24.4298 26.3164 24.9867 25.5307 25.4697C24.8379 25.8978 23.925 26.1345 22.7977 26.1857C22.6477 26.1932 22.4959 26.1951 22.3403 26.1951C22.0005 26.1951 21.6798 26.1743 21.378 26.1364C21.4919 26.4414 21.6001 26.7558 21.695 27.0949C21.7045 27.129 21.712 27.1649 21.7215 27.199C21.9132 27.2104 22.1087 27.2161 22.3099 27.2161C22.568 27.2161 22.8166 27.2009 23.0596 27.1801C23.5379 27.1384 23.9915 27.0608 24.4166 26.9376C25.0562 26.752 25.6294 26.4944 26.1361 26.1648C26.641 25.8353 27.0699 25.4583 27.421 25.0359C27.7721 24.6135 28.0398 24.1646 28.2257 23.6911H28.2884V24.5264C28.2884 24.856 28.3149 25.159 28.3662 25.4375C28.4174 25.7159 28.5161 25.9584 28.6604 26.1629C28.8046 26.3694 29.0172 26.5342 29.2962 26.6573C29.5752 26.7804 29.951 26.8429 30.4274 26.8429C30.7576 26.8429 31.0783 26.8013 31.3877 26.7198V25.7311C31.0157 25.7936 30.7272 25.8239 30.5203 25.8239L30.5166 25.8277Z" fill="white"/>
<path d="M37.9167 26.8468H36.461L30.0498 10.9568H31.4125L37.1746 25.4849H37.2373L42.6274 10.9568H43.9275L37.9167 26.8468Z" fill="white"/>
<path d="M45.9349 4.78371L45.6464 26.8543L44.4697 26.8392L44.7582 4.76855L45.9349 4.78371Z" fill="white"/>
<path d="M47.0742 18.9027C47.0742 17.77 47.2336 16.7036 47.5544 15.7034C47.8751 14.7033 48.3439 13.8226 48.9646 13.0592C49.5833 12.2959 50.3482 11.6935 51.2573 11.2503C52.1664 10.8071 53.2083 10.5854 54.385 10.5854C55.5618 10.5854 56.6056 10.8071 57.5147 11.2503C58.4239 11.6935 59.1868 12.2959 59.8074 13.0592C60.4262 13.8207 60.8969 14.7033 61.2176 15.7034C61.5384 16.7036 61.6978 17.77 61.6978 18.9027C61.6978 20.0354 61.5384 21.1075 61.2176 22.117C60.8969 23.1266 60.4281 24.0074 59.8074 24.7613C59.1887 25.5133 58.4239 26.1099 57.5147 26.5531C56.6056 26.9964 55.5637 27.218 54.385 27.218C53.2064 27.218 52.1645 26.9964 51.2573 26.5531C50.3482 26.1099 49.5833 25.5133 48.9646 24.7613C48.3458 24.0093 47.8751 23.1285 47.5544 22.117C47.2336 21.1075 47.0742 20.0354 47.0742 18.9027ZM48.2509 18.9027C48.2509 19.8497 48.3857 20.7627 48.6533 21.6378C48.9228 22.5148 49.3138 23.2914 49.83 23.9714C50.3463 24.6514 50.9859 25.1931 51.7507 25.5947C52.5137 25.9963 53.3924 26.197 54.3832 26.197C55.3739 26.197 56.2526 25.9963 57.0156 25.5947C57.7786 25.1931 58.4201 24.6514 58.9363 23.9714C59.4525 23.2914 59.8454 22.5148 60.113 21.6378C60.3825 20.7627 60.5154 19.8497 60.5154 18.9027C60.5154 17.9556 60.3825 17.0426 60.113 16.1675C59.8454 15.2924 59.4525 14.5139 58.9363 13.8339C58.4201 13.1539 57.7786 12.6141 57.0156 12.2106C56.2507 11.8091 55.3739 11.6083 54.3832 11.6083C53.3924 11.6083 52.5137 11.8091 51.7507 12.2106C50.9859 12.6122 50.3463 13.1539 49.83 13.8339C49.3138 14.5139 48.9209 15.2924 48.6533 16.1675C48.3857 17.0426 48.2509 17.9556 48.2509 18.9027Z" fill="white"/>
<path d="M68.7829 26.8468H67.3272L60.9141 10.9568H62.2768L68.0389 25.4849H68.1015L73.4917 10.9568H74.7917L68.7829 26.8468Z" fill="white"/>
<path d="M166.799 11.6177C166.294 11.9473 165.852 12.3413 165.471 12.8035C165.089 13.2656 164.797 13.796 164.59 14.3908H164.529V11.0002H163.356V26.8391H164.529V18.2719C164.529 17.3059 164.657 16.4175 164.915 15.6068C165.173 14.7961 165.547 14.0972 166.042 13.5119C166.535 12.9266 167.131 12.4682 167.832 12.1405C168.027 12.0496 168.232 11.9738 168.443 11.9075C167.936 11.8034 167.477 11.6537 167.069 11.4548C166.978 11.5079 166.887 11.559 166.799 11.6158V11.6177Z" fill="#CCCCCC"/>
<path d="M172.03 11.8963C172.302 11.9853 172.545 12.097 172.759 12.2353C173.366 12.6255 173.82 13.0934 174.118 13.637C174.416 14.1806 174.596 14.7526 174.659 15.3474C174.72 15.9441 174.75 16.4365 174.75 16.8267V26.8411H175.923V17.0408C175.923 16.7131 175.913 16.3267 175.893 15.8853C175.872 15.444 175.811 14.9856 175.708 14.514C175.604 14.0404 175.435 13.5745 175.198 13.1123C174.961 12.6501 174.638 12.2334 174.226 11.8641C174.025 11.6822 173.792 11.5174 173.533 11.3716C173.19 11.5383 172.824 11.6822 172.431 11.7959C172.302 11.8338 172.165 11.8641 172.03 11.8944V11.8963Z" fill="#CCCCCC"/>
<path d="M87.5057 25.8277C87.2362 25.8277 87.0293 25.7709 86.885 25.6572C86.7408 25.5436 86.6364 25.3939 86.5738 25.2083C86.5111 25.0227 86.477 24.8162 86.4656 24.5908C86.4561 24.3635 86.4504 24.1381 86.4504 23.9108V14.6673C86.4504 13.4513 86.012 12.4663 85.1333 11.7144C84.2564 10.9624 82.8557 10.5854 80.9369 10.5854C79.0181 10.5854 77.5339 11.023 76.492 11.9C75.4481 12.7751 74.8863 14.0896 74.8047 15.8417H75.9814C76.063 14.4192 76.5432 13.3585 77.422 12.6576C78.2988 11.9568 79.4508 11.6064 80.8762 11.6064C81.6809 11.6064 82.3623 11.6878 82.9203 11.8545C83.4783 12.0193 83.9319 12.2466 84.283 12.5345C84.6341 12.8224 84.8922 13.152 85.0573 13.5233C85.2225 13.8945 85.3041 14.2961 85.3041 14.7299C85.3041 15.2867 85.2737 15.7489 85.2111 16.1202C85.1484 16.4914 84.9947 16.7964 84.7461 17.0312C84.4974 17.268 84.1311 17.4536 83.6472 17.5881C83.1613 17.7226 82.4951 17.8192 81.6486 17.8817L79.8209 18.037C79.1813 18.0995 78.5152 18.2018 77.8224 18.3458C77.1297 18.4897 76.5015 18.7322 75.9321 19.0731C75.3646 19.4122 74.8939 19.8763 74.5238 20.4634C74.1518 21.0506 73.9658 21.8083 73.9658 22.7364C73.9658 24.2612 74.4308 25.3901 75.3589 26.1213C75.5943 26.3069 75.8543 26.4679 76.139 26.6062C76.5394 26.8013 76.9892 26.949 77.4884 27.0494C78.0331 27.1612 78.6328 27.218 79.2933 27.218C79.9044 27.218 80.4738 27.1555 81.0071 27.0361C81.14 27.0058 81.2729 26.9755 81.4 26.9395C81.7853 26.8278 82.144 26.6857 82.4818 26.5228C82.7039 26.4149 82.9184 26.2993 83.1195 26.1667C83.6244 25.8372 84.0533 25.4602 84.4044 25.0378C84.7556 24.6154 85.0232 24.1665 85.2111 23.693H85.2737V24.5283C85.2737 24.8579 85.2984 25.1609 85.3515 25.4394C85.4028 25.7178 85.5014 25.9603 85.6457 26.1648C85.7899 26.3713 86.0025 26.5361 86.2796 26.6592C86.5586 26.7823 86.9344 26.8448 87.4108 26.8448C87.741 26.8448 88.0618 26.8032 88.3711 26.7217V25.733C87.9991 25.7955 87.7106 25.8258 87.5038 25.8258L87.5057 25.8277ZM85.2756 20.7892C85.2756 20.9957 85.2187 21.3916 85.1048 21.9788C84.9909 22.566 84.7271 23.174 84.3152 23.8028C83.9015 24.4317 83.3036 24.9886 82.5179 25.4716C82.1364 25.7065 81.6885 25.8845 81.1742 26.0038C80.6314 26.1326 80.0164 26.197 79.3275 26.197C78.705 26.197 78.147 26.1307 77.6535 26.0019C77.1145 25.8599 76.6495 25.6439 76.2604 25.3485C75.5164 24.7821 75.1463 23.9108 75.1463 22.7364C75.1463 21.9939 75.2906 21.3916 75.5791 20.9275C75.8675 20.4634 76.2452 20.0979 76.7102 19.8289C77.1752 19.5618 77.6972 19.3705 78.2741 19.2569C78.853 19.1432 79.4319 19.0561 80.0088 18.9936L81.9903 18.808C82.7134 18.7455 83.3682 18.6526 83.9584 18.5295C84.5468 18.4064 84.9852 18.1696 85.2756 17.8192V20.7873V20.7892Z" fill="white"/>
<path d="M112.97 12.0439C112.722 12.0647 112.469 12.0799 112.206 12.0799C111.999 12.0799 111.799 12.0742 111.606 12.0628C111.885 13.1103 112.027 14.3566 112.027 15.8076C112.027 17.7188 111.765 19.3061 111.24 20.5695C110.714 21.8329 110.031 22.8405 109.186 23.5887C108.341 24.3388 107.4 24.873 106.36 25.1912C105.32 25.5094 104.285 25.6685 103.257 25.6685H97.3277V19.3174H95.9688V26.8391H103.132C104.902 26.8391 106.43 26.5569 107.717 25.9924C109.004 25.428 110.068 24.6514 110.913 23.6645C111.758 22.6776 112.38 21.5127 112.781 20.1679C113.183 18.8231 113.382 17.3683 113.382 15.8076C113.382 14.5176 113.24 13.2637 112.967 12.042L112.97 12.0439Z" fill="#CCCCCC"/>
<path d="M97.3277 6.00921H102.978C103.513 6.00921 104.115 6.0452 104.785 6.11717C105.453 6.18915 106.123 6.33879 106.793 6.56419C106.812 6.56988 106.829 6.57745 106.848 6.58503C106.92 6.14369 107.043 5.7516 107.224 5.40876C106.085 5.02993 104.745 4.83862 103.196 4.83862H95.9707V20.6699H97.3296V6.00921H97.3277Z" fill="#CCCCCC"/>
</svg>
