<svg width="25" height="24" viewBox="0 0 25 24" fill="none" xmlns="http://www.w3.org/2000/svg">
<path fill-rule="evenodd" clip-rule="evenodd" d="M3.39084 11.3683C9.16501 8.85256 13.0154 7.19403 14.9419 6.39272C20.4425 4.10479 21.5855 3.70736 22.3305 3.69423C22.4944 3.69135 22.8607 3.73195 23.098 3.92452C23.2984 4.08712 23.3535 4.30676 23.3799 4.46092C23.4063 4.61508 23.4392 4.96626 23.413 5.24067C23.115 8.37266 21.8252 15.9732 21.169 19.4811C20.8913 20.9654 20.3446 21.4631 19.8154 21.5118C18.6651 21.6176 17.7917 20.7516 16.6776 20.0213C14.9344 18.8786 13.9495 18.1672 12.2574 17.0521C10.3018 15.7634 11.5695 15.0551 12.684 13.8975C12.9756 13.5946 18.0436 8.98486 18.1417 8.56669C18.154 8.51439 18.1653 8.31944 18.0495 8.2165C17.9337 8.11356 17.7628 8.14876 17.6394 8.17675C17.4646 8.21644 14.6797 10.0572 9.28469 13.699C8.4942 14.2418 7.7782 14.5063 7.13669 14.4924C6.42947 14.4771 5.06907 14.0925 4.05776 13.7638C2.81734 13.3606 1.83147 13.1474 1.91732 12.4626C1.96203 12.1059 2.45321 11.7412 3.39084 11.3683Z" fill="white"/>
</svg>
