<svg width="25" height="25" viewBox="0 0 25 25" fill="none" xmlns="http://www.w3.org/2000/svg">
<path d="M0.666992 24.3065L2.35399 18.1435C1.31299 16.3395 0.765992 14.2945 0.766992 12.1975C0.769992 5.64152 6.10499 0.306519 12.66 0.306519C15.841 0.307519 18.827 1.54652 21.073 3.79452C23.318 6.04252 24.554 9.03052 24.553 12.2085C24.55 18.7655 19.215 24.1005 12.66 24.1005C10.67 24.0995 8.70899 23.6005 6.97199 22.6525L0.666992 24.3065ZM7.26399 20.4995C8.93999 21.4945 10.54 22.0905 12.656 22.0915C18.104 22.0915 22.542 17.6575 22.545 12.2065C22.547 6.74452 18.13 2.31652 12.664 2.31452C7.21199 2.31452 2.77699 6.74852 2.77499 12.1985C2.77399 14.4235 3.42599 16.0895 4.52099 17.8325L3.52199 21.4805L7.26399 20.4995ZM18.651 15.0355C18.577 14.9115 18.379 14.8375 18.081 14.6885C17.784 14.5395 16.323 13.8205 16.05 13.7215C15.778 13.6225 15.58 13.5725 15.381 13.8705C15.183 14.1675 14.613 14.8375 14.44 15.0355C14.267 15.2335 14.093 15.2585 13.796 15.1095C13.499 14.9605 12.541 14.6475 11.406 13.6345C10.523 12.8465 9.92599 11.8735 9.75299 11.5755C9.58 11.2785 9.73499 11.1175 9.88299 10.9695C10.017 10.8365 10.18 10.6225 10.329 10.4485C10.48 10.2765 10.529 10.1525 10.629 9.95352C10.728 9.75552 10.679 9.58152 10.604 9.43252C10.529 9.28452 9.935 7.82152 9.68799 7.22652C9.446 6.64752 9.201 6.72552 9.019 6.71652L8.449 6.70652C8.251 6.70652 7.92899 6.78052 7.65699 7.07852C7.38499 7.37652 6.61699 8.09452 6.61699 9.55752C6.61699 11.0205 7.68199 12.4335 7.82999 12.6315C7.97899 12.8295 9.92499 15.8315 12.906 17.1185C13.615 17.4245 14.169 17.6075 14.6 17.7445C15.312 17.9705 15.96 17.9385 16.472 17.8625C17.043 17.7775 18.23 17.1435 18.478 16.4495C18.726 15.7545 18.726 15.1595 18.651 15.0355Z" fill="white"/>
</svg>
